<?xml version="1.0" encoding="UTF-8" standalone="no"?>
<!-- Created with Inkscape (http://www.inkscape.org/) -->

<svg
   xmlns:dc="http://purl.org/dc/elements/1.1/"
   xmlns:cc="http://creativecommons.org/ns#"
   xmlns:rdf="http://www.w3.org/1999/02/22-rdf-syntax-ns#"
   xmlns:svg="http://www.w3.org/2000/svg"
   xmlns="http://www.w3.org/2000/svg"
   xmlns:xlink="http://www.w3.org/1999/xlink"
   xmlns:sodipodi="http://sodipodi.sourceforge.net/DTD/sodipodi-0.dtd"
   xmlns:inkscape="http://www.inkscape.org/namespaces/inkscape"
   width="410.69324mm"
   height="412.97388mm"
   viewBox="0 0 1455.2123 1463.2933"
   id="svg2"
   version="1.1"
   inkscape:version="0.91 r13725"
   sodipodi:docname="LPSHARE.svg"
   inkscape:export-filename="/home/umib/circle4299.png"
   inkscape:export-xdpi="96.599998"
   inkscape:export-ydpi="96.599998">
  <defs
     id="defs4">
    <linearGradient
       inkscape:collect="always"
       id="linearGradient4283">
      <stop
         style="stop-color:#9cdaf3;stop-opacity:1"
         offset="0"
         id="stop4285" />
      <stop
         style="stop-color:#6dc5eb;stop-opacity:1"
         offset="1"
         id="stop4287" />
    </linearGradient>
    <linearGradient
       inkscape:collect="always"
       xlink:href="#linearGradient4283"
       id="linearGradient4367"
       gradientUnits="userSpaceOnUse"
       gradientTransform="translate(-1615.8755,-672.34509)"
       x1="-905.71429"
       y1="238.07649"
       x2="48.57143"
       y2="260.93362" />
    <linearGradient
       inkscape:collect="always"
       xlink:href="#linearGradient4375"
       id="linearGradient4365"
       gradientUnits="userSpaceOnUse"
       gradientTransform="translate(-1615.8755,-672.34509)"
       x1="-118.78169"
       y1="1141.6473"
       x2="-1583.5029"
       y2="-163.88435" />
    <linearGradient
       id="linearGradient4375"
       inkscape:collect="always">
      <stop
         id="stop4377"
         offset="0"
         style="stop-color:#ededee;stop-opacity:1" />
      <stop
         id="stop4379"
         offset="1"
         style="stop-color:#addff3;stop-opacity:1" />
    </linearGradient>
  </defs>
  <sodipodi:namedview
     id="base"
     pagecolor="#ffffff"
     bordercolor="#666666"
     borderopacity="1.0"
     inkscape:pageopacity="0.0"
     inkscape:pageshadow="2"
     inkscape:zoom="0.175"
     inkscape:cx="-436.17296"
     inkscape:cy="994.12288"
     inkscape:document-units="px"
     inkscape:current-layer="layer1"
     showgrid="false"
     fit-margin-top="0"
     fit-margin-left="0"
     fit-margin-right="0"
     fit-margin-bottom="0"
     inkscape:window-width="1366"
     inkscape:window-height="718"
     inkscape:window-x="0"
     inkscape:window-y="0"
     inkscape:window-maximized="1" />
  <metadata
     id="metadata7">
    <rdf:RDF>
      <cc:Work
         rdf:about="">
        <dc:format>image/svg+xml</dc:format>
        <dc:type
           rdf:resource="http://purl.org/dc/dcmitype/StillImage" />
        <dc:title></dc:title>
      </cc:Work>
    </rdf:RDF>
  </metadata>
  <g
     inkscape:label="Layer 1"
     inkscape:groupmode="layer"
     id="layer1"
     transform="translate(1448.7327,640.41897)">
    <g
       id="g4167"
       transform="matrix(0.78642241,0,0,0.78642241,-88.492969,-46.902292)">
      <circle
         class="st0"
         cx="-414.3364"
         cy="-219.60306"
         r="535.10162"
         id="circle7-7"
         style="clip-rule:evenodd;fill:#e84142;fill-rule:evenodd" />
      <path
         class="st1"
         d="m -225.57639,-205.69888 c 18.53896,-32.02184 48.45409,-32.02184 66.99304,0 L -43.136221,-3.0344107 c 18.53894,32.0218397 3.37071,58.1449097 -33.70721,58.1449097 l -232.579599,0 c -36.65657,0 -51.8248,-26.12307 -33.70718,-58.1449097 L -225.57639,-205.69888 Z m -223.31015,-390.16073 c 18.53899,-32.02183 48.03277,-32.02183 66.57171,0 l 25.70175,46.34739 60.67293,106.599 c 14.74689,30.33645 14.74689,66.15036 0,96.48682 L -499.44733,6.2350793 c -18.539,28.6511097 -49.2968,46.7687197 -83.4253,48.8754197 l -168.9573,0 c -37.0779,0 -52.2462,-25.70174 -33.7072,-58.1449097 L -448.88654,-595.85961 Z"
         id="path9-5"
         inkscape:connector-curvature="0"
         style="fill:#ffffff" />
    </g>
    <g
       id="g4221"
       transform="translate(1106.7586,704.67004)">
      <circle
         style="opacity:1;fill:url(#linearGradient4365);fill-opacity:1;fill-rule:nonzero;stroke:none;stroke-width:18.20000458;stroke-linecap:butt;stroke-linejoin:miter;stroke-miterlimit:4;stroke-dasharray:none;stroke-dashoffset:0;stroke-opacity:1"
         id="circle4345"
         cx="-2037.3042"
         cy="-399.98285"
         r="491.94431" />
      <path
         id="path4347"
         d="m -2059.5572,-833.3726 0,143.75591 -70.3046,-70.0801 -34.7227,34.9863 105.0273,105.70511 0,68.9668 a 162.8572,162.8572 0 0 0 -112.5839,70.06451 l -54.9805,-31.74031 -41.0429,-151.2109 -47.6543,12.5762 27.5,103.3008 -129.1641,-74.5762 -25.543,44.25 124.4961,71.8828 -95.8457,25.83791 12.9395,47.5644 144.0547,-38.1015 63.5058,36.6679 a 162.8572,162.8572 0 0 0 -6.2851,44.6231 162.8572,162.8572 0 0 0 6.0312,43.2656 l -56.8398,32.8184 -144.0547,-38.1035 -12.9395,47.5644 95.8457,25.8399 -124.4961,71.88281 25.543,44.24021 129.1641,-74.56641 -27.5,103.29881 47.6543,12.5762 41.0429,-151.20902 47.8008,-27.5976 a 162.8572,162.8572 0 0 0 113.3515,71.13671 l 0,68.95701 -105.0273,105.705096 34.7227,34.9863 70.3046,-70.082 0,143.75786 51.0918,0 0,-149.14456 75.709,75.4687 34.7227,-34.9863 -110.4317,-111.150406 0,-64.5176 a 162.8572,162.8572 0 0 0 106.4727,-69.73041 l 54.5059,31.4687 41.0429,151.21092 47.6543,-12.5781 -27.5,-103.29881 129.1641,74.57621 25.543,-44.25001 -124.4961,-71.88291 95.8457,-25.8398 -12.9395,-47.5625 -144.0547,38.1016 -63.2461,-36.5176 a 162.8572,162.8572 0 0 0 6.0254,-43.8379 162.8572,162.8572 0 0 0 -6.3672,-44.5762 l 63.5879,-36.7148 144.0547,38.1015 12.9395,-47.5644 -95.8457,-25.83791 124.4961,-71.8828 -25.543,-44.25 -129.1641,74.5762 27.5,-103.3008 -47.6543,-12.5762 -41.0429,151.2109 -54.8926,31.69341 a 162.8572,162.8572 0 0 0 -106.086,-69.10741 l 0,-64.4317 110.4317,-111.15041 -34.7227,-34.9863 -75.709,75.4688 0,-149.14461 -51.0918,0 z m 22.252,302.62702 a 141.84337,141.84337 0 0 1 141.8438,141.84571 141.84337,141.84337 0 0 1 -141.8438,141.84181 141.84337,141.84337 0 0 1 -141.8418,-141.84181 141.84337,141.84337 0 0 1 141.8418,-141.84571 z"
         style="opacity:1;fill:#ededee;fill-opacity:1;fill-rule:nonzero;stroke:none;stroke-width:18.20000458;stroke-linecap:butt;stroke-linejoin:miter;stroke-miterlimit:4;stroke-dasharray:none;stroke-dashoffset:0;stroke-opacity:1"
         inkscape:connector-curvature="0" />
      <path
         style="opacity:1;fill:#0095da;fill-opacity:1;fill-rule:nonzero;stroke:none;stroke-width:18.20000458;stroke-linecap:butt;stroke-linejoin:miter;stroke-miterlimit:4;stroke-dasharray:none;stroke-dashoffset:0;stroke-opacity:1"
         d="m -2059.5572,-844.4545 0,143.75591 -70.3046,-70.0801 -34.7227,34.9863 105.0273,105.70511 0,68.9668 a 162.8572,162.8572 0 0 0 -112.5839,70.06441 l -54.9805,-31.74021 -41.0429,-151.21091 -47.6543,12.57611 27.5,103.3008 -129.1641,-74.5762 -25.543,44.25 124.4961,71.8829 -95.8457,25.83791 12.9395,47.5644 144.0547,-38.1016 63.5058,36.668 a 162.8572,162.8572 0 0 0 -6.2851,44.6231 162.8572,162.8572 0 0 0 6.0312,43.2656 l -56.8398,32.8183 -144.0547,-38.1035 -12.9395,47.5645 95.8457,25.8398 -124.4961,71.88281 25.543,44.2403 129.1641,-74.5664 -27.5,103.29881 47.6543,12.5762 41.0429,-151.20902 47.8008,-27.5977 a 162.8572,162.8572 0 0 0 113.3515,71.13671 l 0,68.9571 -105.0273,105.705106 34.7227,34.9863 70.3046,-70.0821 0,143.75796 51.0918,0 0,-149.144656 75.709,75.468796 34.7227,-34.9863 -110.4317,-111.150406 0,-64.5176 a 162.8572,162.8572 0 0 0 106.4727,-69.73051 l 54.5059,31.4688 41.0429,151.21092 47.6543,-12.5781 -27.5,-103.29891 129.1641,74.5762 25.543,-44.25 -124.4961,-71.88281 95.8457,-25.8398 -12.9395,-47.5625 -144.0547,38.1015 -63.2461,-36.5176 a 162.8572,162.8572 0 0 0 6.0254,-43.8378 162.8572,162.8572 0 0 0 -6.3672,-44.5762 l 63.5879,-36.7149 144.0547,38.1016 12.9395,-47.5644 -95.8457,-25.83791 124.4961,-71.8829 -25.543,-44.25 -129.1641,74.5762 27.5,-103.3008 -47.6543,-12.57611 -41.0429,151.21091 -54.8926,31.69341 a 162.8572,162.8572 0 0 0 -106.086,-69.10751 l 0,-64.4316 110.4317,-111.15041 -34.7227,-34.9863 -75.709,75.4687 0,-149.14451 -51.0918,0 z m 22.252,302.62702 a 141.84337,141.84337 0 0 1 141.8438,141.84571 141.84337,141.84337 0 0 1 -141.8438,141.8418 141.84337,141.84337 0 0 1 -141.8418,-141.8418 141.84337,141.84337 0 0 1 141.8418,-141.84571 z"
         id="path4357"
         inkscape:connector-curvature="0" />
      <circle
         style="clip-rule:evenodd;fill:#0084c5;fill-opacity:1;fill-rule:evenodd"
         id="circle4351"
         r="127.00001"
         cy="-399.98285"
         cx="-2037.3042"
         class="st0" />
      <path
         style="fill:#ffffff"
         inkscape:connector-curvature="0"
         id="path4353"
         d="m -1992.5042,-396.68277 c 4.4,-7.6001 11.5,-7.6001 15.9,0 l 27.4,48.1 c 4.4,7.6 0.8,13.8 -8,13.8 l -55.2,0 c -8.7,0 -12.3,-6.2 -8,-13.8 l 27.9,-48.1 z m -53,-92.6001 c 4.4,-7.5999 11.4,-7.5999 15.8,0 l 6.1,11 14.4,25.3001 c 3.5,7.1999 3.5,15.6999 0,22.9 l -48.3,83.7 c -4.4,6.8 -11.7,11.1 -19.8,11.6 l -40.1,0 c -8.8,0 -12.4,-6.1 -8,-13.8 l 79.9,-140.7 z"
         class="st1" />
      <circle
         r="491.94431"
         cy="-399.98285"
         cx="-2037.3042"
         id="circle4355"
         style="opacity:1;fill:none;fill-opacity:1;fill-rule:nonzero;stroke:url(#linearGradient4367);stroke-width:18.20000458;stroke-linecap:butt;stroke-linejoin:miter;stroke-miterlimit:4;stroke-dasharray:none;stroke-dashoffset:0;stroke-opacity:1" />
      <circle
         style="opacity:1;fill:none;fill-opacity:1;fill-rule:nonzero;stroke:#9bdaf3;stroke-width:18.82270432;stroke-linecap:butt;stroke-linejoin:miter;stroke-miterlimit:4;stroke-dasharray:none;stroke-dashoffset:0;stroke-opacity:1"
         id="circle4359"
         cx="-2037.3042"
         cy="-399.98285"
         r="508.77582" />
    </g>
  </g>
</svg>
